<?xml version="1.0" encoding="UTF-8"?>
<!-- Generator: Adobe Illustrator 19.0.1, SVG Export Plug-In . SVG Version: 6.00 Build 0)  -->
<!DOCTYPE svg PUBLIC "-//W3C//DTD SVG 1.1//EN" "http://www.w3.org/Graphics/SVG/1.1/DTD/svg11.dtd">
<svg version="1.1" id="Layer_1" xmlns="http://www.w3.org/2000/svg" xmlns:xlink="http://www.w3.org/1999/xlink" x="0px" y="0px" viewBox="0 0 80 80" style="enable-background:new 0 0 80 80;" xml:space="preserve">
<style type="text/css">
	.st0{fill:#DA0915;}
	.st1{fill:#FFFFFF;}
</style>
<path class="st0" d="M75,80H5c-2.8,0-5-2.2-5-5V5c0-2.8,2.2-5,5-5h70c2.8,0,5,2.2,5,5v70C80,77.7,77.7,80,75,80z"/>
<g>
	<path class="st1" d="M6,68.9v-2.7c1.3-0.2,2.1-0.5,2.6-1.1c0.5-0.6,0.7-1.5,0.7-2.9V17.8c0-0.9-0.1-1.6-0.2-2   c-0.2-0.5-0.4-0.9-0.8-1.2c-0.3-0.3-0.6-0.5-1-0.6C7,13.8,6.5,13.7,6,13.7v-2.6h31l0.2,16.7h-2.6c-1.1-4.9-2.5-8.5-4.4-10.8   s-4.4-3.4-7.5-3.4c-1.3,0-2.2,0.2-2.6,0.7c-0.4,0.5-0.7,1.6-0.7,3.4v19.5c2.1-0.2,3.8-1.2,5.1-2.9s2.2-4.2,2.7-7.4h2.6v25h-2.6   c-0.3-3.5-1.1-6.2-2.5-8.3c-1.3-2-3.1-3.2-5.2-3.5v22.3c0,1.3,0.2,2.3,0.7,2.8c0.5,0.5,1.3,0.8,2.4,0.8c2.9,0,5.3-1.3,7.4-3.9   c2.1-2.6,3.8-6.6,5.2-12h2.6l-0.3,18.7H6z"/>
	<path class="st1" d="M42.3,68.9v-2.7c1.3-0.2,2.1-0.5,2.6-1.1c0.5-0.6,0.7-1.5,0.7-2.9V17.8c0-0.9-0.1-1.6-0.2-2   c-0.2-0.5-0.4-0.9-0.8-1.2c-0.3-0.3-0.6-0.5-1-0.6c-0.4-0.1-0.9-0.2-1.4-0.3v-2.6h31l0.2,16.7h-2.6c-1.1-4.9-2.5-8.5-4.4-10.8   c-1.9-2.2-4.4-3.4-7.5-3.4c-1.3,0-2.2,0.2-2.6,0.7c-0.4,0.5-0.7,1.6-0.7,3.4v19.5c2.1-0.2,3.8-1.2,5.1-2.9s2.2-4.2,2.7-7.4h2.6v25   h-2.6c-0.3-3.5-1.1-6.2-2.5-8.3c-1.3-2-3.1-3.2-5.2-3.5v22.3c0,1.3,0.2,2.3,0.7,2.8c0.5,0.5,1.3,0.8,2.4,0.8c2.9,0,5.3-1.3,7.4-3.9   c2.1-2.6,3.8-6.6,5.2-12H74l-0.3,18.7H42.3z"/>
</g>
</svg>